<svg xmlns="http://www.w3.org/2000/svg" xmlns:xlink="http://www.w3.org/1999/xlink" width="92.06" height="97.623" viewBox="0 0 92.06 97.623">
  <defs>
    <clipPath id="clip-path">
      <rect id="Rectángulo_76" data-name="Rectángulo 76" width="92.06" height="97.623" fill="#92f5fc"/>
    </clipPath>
  </defs>
  <g id="Grupo_141" data-name="Grupo 141" clip-path="url(#clip-path)">
    <path id="Trazado_15841" data-name="Trazado 15841" d="M60,137.768a23.374,23.374,0,0,1-3.691-1.85,6.275,6.275,0,0,1-2.453-4.765c-.035-.443-.051-.888-.051-1.333,0-14.455-.032-28.911.008-43.366.031-11.351,4.662-20.428,13.95-26.939,18.3-12.829,44.385-2.689,49.211,19.109a38.877,38.877,0,0,1,.855,8.117c.083,14.074-.04,28.149.084,42.222.039,4.479-1.743,7.749-6.243,8.8Zm25.074-9.151q9.912,0,19.824,0a3.44,3.44,0,0,0,3.808-3.764c.018-4.892.04-9.785-.006-14.677a7.2,7.2,0,0,0-7.62-7.484q-16.012-.01-32.023,0a7.223,7.223,0,0,0-7.619,7.585c-.028,4.829-.015,9.658,0,14.487.006,2.529,1.362,3.853,3.91,3.854q9.864,0,19.729,0m.688-41.182c2.86,0,5.719.008,8.579,0a3.4,3.4,0,0,0,3.684-3.6c.037-2.7.041-5.4,0-8.1a3.381,3.381,0,0,0-3.634-3.547q-8.531-.015-17.062,0a3.4,3.4,0,0,0-3.683,3.6q-.052,4,0,8.006a3.416,3.416,0,0,0,3.732,3.646c2.8.008,5.592,0,8.388,0" transform="translate(-40.092 -40.146)" fill="#92f5fc"/>
    <path id="Trazado_15842" data-name="Trazado 15842" d="M65.8,14.4c0-2.86-.011-5.719,0-8.578C65.82,2.181,68,.012,71.614.006c1.843,0,3.686-.015,5.528,0a5.218,5.218,0,0,1,5.389,5.051c.111,2.378.023,4.765.053,7.147.009.732-.52.866-1.014,1.068A34.973,34.973,0,0,0,68.552,22.5c-.465.521-.863,1.1-1.354,1.6a5.33,5.33,0,0,1-1.033.654,3.962,3.962,0,0,1-.348-1.1c-.028-3.081-.016-6.163-.016-9.245" transform="translate(-49.037 0)" fill="#92f5fc"/>
    <path id="Trazado_15843" data-name="Trazado 15843" d="M244.236,14.4c0,3.082.012,6.164-.016,9.246a3.986,3.986,0,0,1-.347,1.1,3.8,3.8,0,0,1-1.029-.652,35.071,35.071,0,0,0-14.465-10.854,1.278,1.278,0,0,1-.936-1.414c.038-2.033,0-4.067.017-6.1.032-3.569,2.221-5.718,5.81-5.724,1.811,0,3.622-.01,5.433,0a5.278,5.278,0,0,1,5.516,5.433c.059,2.985.012,5.973.012,8.96Z" transform="translate(-169.511 -0.004)" fill="#92f5fc"/>
    <path id="Trazado_15844" data-name="Trazado 15844" d="M19.49,280.268q0,4.812,0,9.625c0,1.269-.313,1.461-1.4.808a11.663,11.663,0,0,1-6.135-9.72c-.191-3.548-.065-7.112-.092-10.669-.005-.678.241-.961.961-.943q2.809.069,5.621.018c.8-.016,1.063.3,1.058,1.066-.02,3.272-.009,6.543-.008,9.815" transform="translate(-8.826 -200.758)" fill="#92f5fc"/>
    <path id="Trazado_15845" data-name="Trazado 15845" d="M325.031,275.958a59.388,59.388,0,0,1-.436,6.632,11.51,11.51,0,0,1-5.97,8.178c-1.046.6-1.339.42-1.34-.814-.005-6.444.009-12.888-.016-19.332,0-.9.275-1.24,1.211-1.208,1.807.063,3.619.039,5.427,0,.754-.016,1.017.293,1.009,1.012-.021,1.841-.007,3.682-.007,5.523l.121.007" transform="translate(-236.459 -200.791)" fill="#92f5fc"/>
    <path id="Trazado_15846" data-name="Trazado 15846" d="M317.3,226.125c0-1.205.013-2.411,0-3.616-.01-.675.255-.971.962-.96,1.9.03,3.806-.019,5.708.02a4.616,4.616,0,0,1,4.568,4.639,4.547,4.547,0,0,1-4.588,4.5c-1.871.026-3.743-.023-5.613.02-.814.019-1.059-.331-1.04-1.079.029-1.173.008-2.347.008-3.52" transform="translate(-236.472 -165.119)" fill="#92f5fc"/>
    <path id="Trazado_15847" data-name="Trazado 15847" d="M10.662,226.163c0,1.173-.017,2.347.007,3.52.014.715-.247,1.033-1,1.016-1.712-.038-3.425.011-5.137-.02a4.56,4.56,0,0,1-.277-9.108c1.865-.1,3.741-.021,5.612-.038.654-.006.8.376.8.919q0,1.855,0,3.711" transform="translate(0 -165.095)" fill="#92f5fc"/>
    <path id="Trazado_15848" data-name="Trazado 15848" d="M165.512,29.084c-1.2-.295-2.428-.236-3.511-1.171a4.307,4.307,0,0,0-5.744.333c-.974.867-2.205.711-3.33.783-.666.042-.5-.627-.266-1.088a7.743,7.743,0,0,1,7.758-3.907,7.521,7.521,0,0,1,5.692,4.007c.368.673.117,1.068-.6,1.044" transform="translate(-113.625 -17.853)" fill="#92f5fc"/>
    <path id="Trazado_15849" data-name="Trazado 15849" d="M116.263,304.05c-6.482,0-12.964-.018-19.446.02-.892.005-1.145-.261-1.131-1.129.046-2.8.042-5.593,0-8.388-.013-.912.3-1.276,1.223-1.193a11.92,11.92,0,0,0,2.19,0c.965-.093,1.251.35,1.185,1.225a14.5,14.5,0,0,0,0,1.525c.035,1.134.611,1.826,1.508,1.832.914.007,1.5-.669,1.531-1.8.017-.572.029-1.145,0-1.716-.04-.766.255-1.081,1.056-1.065,2.033.04,4.067.013,6.1.013h25.071c1.294,0,1.334.037,1.335,1.337,0,2.733-.036,5.466.021,8.2.02.94-.3,1.166-1.2,1.161-6.482-.036-12.964-.019-19.446-.019" transform="translate(-71.313 -218.63)" fill="#92f5fc"/>
    <path id="Trazado_15850" data-name="Trazado 15850" d="M116.27,263.62H97.032c-1.221,0-1.274-.058-1.278-1.3-.009-3.163,1.631-4.8,4.81-4.8q15.81,0,31.62,0c3.249,0,5.111,2.111,4.76,5.336-.086.79-.583.768-1.149.768q-8.857-.007-17.715,0h-1.81" transform="translate(-71.365 -191.926)" fill="#92f5fc"/>
    <path id="Trazado_15851" data-name="Trazado 15851" d="M152.861,137.709c2.668,0,5.337.023,8-.015.757-.011,1.082.168,1.067.995-.044,2.413-.031,4.828-.006,7.242.007.679-.19.948-.921.944q-8.243-.04-16.486,0c-.736,0-.924-.272-.917-.947.025-2.414.038-4.829-.006-7.242-.015-.831.317-1,1.07-.992,2.731.037,5.463.015,8.195.015m-.033,3.051c-1.46,0-2.92-.01-4.38,0-1.113.01-1.777.61-1.76,1.551a1.527,1.527,0,0,0,1.725,1.491q4.333.019,8.665,0c1.112,0,1.777-.611,1.759-1.553-.016-.9-.662-1.478-1.725-1.49-1.428-.015-2.857,0-4.285,0" transform="translate(-107.021 -102.622)" fill="#92f5fc"/>
  </g>
</svg>
