<svg xmlns="http://www.w3.org/2000/svg" width="56.333" height="64.381" viewBox="0 0 56.333 64.381">
  <path id="Icon_awesome-calendar-alt" data-name="Icon awesome-calendar-alt" d="M0,58.345a6.037,6.037,0,0,0,6.036,6.036H50.3a6.037,6.037,0,0,0,6.036-6.036v-34.2H0ZM40.238,33.7a1.513,1.513,0,0,1,1.509-1.509h5.03A1.513,1.513,0,0,1,48.286,33.7v5.03a1.513,1.513,0,0,1-1.509,1.509h-5.03a1.513,1.513,0,0,1-1.509-1.509Zm0,16.1a1.513,1.513,0,0,1,1.509-1.509h5.03a1.513,1.513,0,0,1,1.509,1.509v5.03a1.513,1.513,0,0,1-1.509,1.509h-5.03a1.513,1.513,0,0,1-1.509-1.509Zm-16.1-16.1a1.513,1.513,0,0,1,1.509-1.509h5.03A1.513,1.513,0,0,1,32.19,33.7v5.03a1.513,1.513,0,0,1-1.509,1.509h-5.03a1.513,1.513,0,0,1-1.509-1.509Zm0,16.1a1.513,1.513,0,0,1,1.509-1.509h5.03a1.513,1.513,0,0,1,1.509,1.509v5.03a1.513,1.513,0,0,1-1.509,1.509h-5.03a1.513,1.513,0,0,1-1.509-1.509ZM8.048,33.7A1.513,1.513,0,0,1,9.557,32.19h5.03A1.513,1.513,0,0,1,16.1,33.7v5.03a1.513,1.513,0,0,1-1.509,1.509H9.557a1.513,1.513,0,0,1-1.509-1.509Zm0,16.1a1.513,1.513,0,0,1,1.509-1.509h5.03A1.513,1.513,0,0,1,16.1,49.795v5.03a1.513,1.513,0,0,1-1.509,1.509H9.557a1.513,1.513,0,0,1-1.509-1.509ZM50.3,8.048H44.262V2.012A2.018,2.018,0,0,0,42.25,0H38.226a2.018,2.018,0,0,0-2.012,2.012V8.048h-16.1V2.012A2.018,2.018,0,0,0,18.107,0H14.083a2.018,2.018,0,0,0-2.012,2.012V8.048H6.036A6.037,6.037,0,0,0,0,14.083v6.036H56.333V14.083A6.037,6.037,0,0,0,50.3,8.048Z" fill="#92f5fc"/>
</svg>
