<svg xmlns="http://www.w3.org/2000/svg" width="68.249" height="60.666" viewBox="0 0 68.249 60.666">
  <path id="Icon_awesome-map-marked-alt" data-name="Icon awesome-map-marked-alt" d="M34.125,0A14.929,14.929,0,0,0,19.2,14.93c0,6.666,9.758,18.816,13.5,23.226a1.869,1.869,0,0,0,2.867,0c3.738-4.41,13.5-16.56,13.5-23.226A14.929,14.929,0,0,0,34.125,0Zm0,19.906A4.977,4.977,0,1,1,39.1,14.93,4.976,4.976,0,0,1,34.125,19.906ZM2.384,25.588A3.792,3.792,0,0,0,0,29.108v29.66a1.9,1.9,0,0,0,2.6,1.761l16.359-7.446V25.466a35.883,35.883,0,0,1-2.518-5.5ZM34.125,42.617a5.661,5.661,0,0,1-4.326-2.01c-2.329-2.749-4.807-5.879-7.049-9.09V53.082L45.5,60.665V31.518c-2.242,3.21-4.718,6.342-7.049,9.09A5.664,5.664,0,0,1,34.125,42.617ZM65.65,19.1,49.291,26.541V60.666l16.574-6.629a3.791,3.791,0,0,0,2.384-3.52V20.856A1.9,1.9,0,0,0,65.65,19.1Z" fill="#92f5fc"/>
</svg>
