<svg xmlns="http://www.w3.org/2000/svg" width="63.854" height="63.977" viewBox="0 0 63.854 63.977">
  <path id="Icon_awesome-medal" data-name="Icon awesome-medal" d="M27.905,16.338l-8.622-14.4A3.989,3.989,0,0,0,15.861,0H2A2,2,0,0,0,.364,3.146l8.9,12.744,4.973,7.119A25.792,25.792,0,0,1,27.905,16.338ZM61.855,0H47.993a3.989,3.989,0,0,0-3.422,1.942l-8.622,14.4a25.8,25.8,0,0,1,13.664,6.67L63.49,3.146A2,2,0,0,0,61.855,0ZM31.927,19.993a21.992,21.992,0,1,0,21.95,21.992A21.971,21.971,0,0,0,31.927,19.993Zm11.539,19.65-4.73,4.618,1.119,6.525A1.433,1.433,0,0,1,37.778,52.3l-5.85-3.08L26.078,52.3A1.432,1.432,0,0,1,24,50.786l1.119-6.525-4.73-4.618a1.436,1.436,0,0,1,.792-2.448l6.539-.955L30.643,30.3a1.434,1.434,0,0,1,2.57,0l2.922,5.938,6.539.955A1.436,1.436,0,0,1,43.466,39.643Z" fill="#92f5fc"/>
</svg>
